<svg width="171" height="55" viewBox="0 0 171 55" fill="none" xmlns="http://www.w3.org/2000/svg">
<g filter="url(#filter0_d_2_20)">
<path fill-rule="evenodd" clip-rule="evenodd" d="M15 10.5C15 8.01472 17.0467 6 19.5714 6H26.4286C28.9533 6 31 8.01472 31 10.5V46.5C31 48.9853 28.9533 51 26.4286 51H19.5714C17.0467 51 15 48.9853 15 46.5V10.5ZM26.4286 10.5H19.5714V46.5H26.4286V10.5Z" fill="#00FFFF"/>
</g>
<g filter="url(#filter1_d_2_20)">
<path fill-rule="evenodd" clip-rule="evenodd" d="M44 10.5C44 8.01472 46.0467 6 48.5714 6H55.4286C57.9533 6 60 8.01472 60 10.5V46.5C60 48.9853 57.9533 51 55.4286 51H48.5714C46.0467 51 44 48.9853 44 46.5V10.5ZM55.4286 10.5H48.5714V46.5H55.4286V10.5Z" fill="#00FFFF"/>
</g>
<g filter="url(#filter2_d_2_20)">
<path fill-rule="evenodd" clip-rule="evenodd" d="M56 15.2143C56 13.9913 56.97 13 58.1667 13H64.6667C65.8159 13 66.9181 13.4666 67.7309 14.297C68.5434 15.1277 69 16.2541 69 17.4286V39.5714C69 40.7459 68.5434 41.8723 67.7309 42.703C66.9181 43.5334 65.8159 44 64.6667 44H58.1667C56.97 44 56 43.0087 56 41.7857C56 40.5627 56.97 39.5714 58.1667 39.5714H64.6667V17.4286H58.1667C56.97 17.4286 56 16.4373 56 15.2143Z" fill="#00FFFF"/>
</g>
<g filter="url(#filter3_d_2_20)">
<path fill-rule="evenodd" clip-rule="evenodd" d="M7.36683 14.297C8.242 13.4666 9.42899 13 10.6667 13H17.6667C18.9553 13 20 13.9913 20 15.2143C20 16.4373 18.9553 17.4286 17.6667 17.4286H10.6667V39.5714H17.6667C18.9553 39.5714 20 40.5627 20 41.7857C20 43.0087 18.9553 44 17.6667 44H10.6667C9.42899 44 8.24202 43.5334 7.36683 42.703C6.49166 41.8723 6 40.7459 6 39.5714V17.4286C6 16.2541 6.49166 15.1277 7.36683 14.297Z" fill="#00FFFF"/>
</g>
<g filter="url(#filter4_d_2_20)">
<path fill-rule="evenodd" clip-rule="evenodd" d="M27 28.5C27 27.1192 27.9849 26 29.2 26H46.8C48.0151 26 49 27.1192 49 28.5C49 29.8808 48.0151 31 46.8 31H29.2C27.9849 31 27 29.8808 27 28.5Z" fill="#00FFFF"/>
</g>
<g filter="url(#filter5_d_2_20)">
<path fill-rule="evenodd" clip-rule="evenodd" d="M65 28.5C65 27.1192 66.0073 26 67.25 26H71.75C72.9927 26 74 27.1192 74 28.5C74 29.8808 72.9927 31 71.75 31H67.25C66.0073 31 65 29.8808 65 28.5Z" fill="#00FFFF"/>
</g>
<g filter="url(#filter6_d_2_20)">
<path fill-rule="evenodd" clip-rule="evenodd" d="M2 28.5C2 27.1192 3.00736 26 4.25 26H8.75C9.99265 26 11 27.1192 11 28.5C11 29.8808 9.99265 31 8.75 31H4.25C3.00736 31 2 29.8808 2 28.5Z" fill="#00FFFF"/>
</g>
<g filter="url(#filter7_d_2_20)">
<path d="M81.2305 16.5801C81.2305 15.3952 81.3991 14.306 81.7363 13.3125C82.0736 12.319 82.543 11.4258 83.1445 10.6328C83.7461 9.83984 84.4616 9.14714 85.291 8.55469C86.1296 7.96224 87.0456 7.46549 88.0391 7.06445C89.0417 6.66341 90.1035 6.36719 91.2246 6.17578C92.3457 5.97526 93.4987 5.875 94.6836 5.875C95.3945 5.875 96.1055 5.92057 96.8164 6.01172C97.5365 6.10286 98.2337 6.23047 98.9082 6.39453C99.5827 6.55859 100.225 6.75456 100.836 6.98242C101.456 7.21029 102.025 7.46094 102.545 7.73438L103.584 6.39453H106.646V13.0664H103.174C102.791 12.3828 102.326 11.7767 101.779 11.248C101.242 10.7194 100.645 10.2728 99.9883 9.9082C99.3411 9.54362 98.6484 9.27018 97.9102 9.08789C97.181 8.89648 96.429 8.80078 95.6543 8.80078C94.8066 8.80078 94 8.94661 93.2344 9.23828C92.4688 9.52995 91.7988 9.97656 91.2246 10.5781C90.6504 11.1797 90.1947 11.9453 89.8574 12.875C89.5202 13.7956 89.3516 14.8893 89.3516 16.1562C89.3516 17.3685 89.5339 18.4395 89.8984 19.3691C90.2721 20.2897 90.7689 21.0645 91.3887 21.6934C92.0085 22.3132 92.7285 22.7826 93.5488 23.1016C94.3783 23.4206 95.2487 23.5801 96.1602 23.5801C96.9622 23.5801 97.6549 23.5254 98.2383 23.416C98.8216 23.2975 99.3503 23.0924 99.8242 22.8008V19.3828L95.8457 15.5547H106.824V26H103.584L102.832 24.6328C102.294 24.9792 101.72 25.2754 101.109 25.5215C100.499 25.7585 99.8607 25.9499 99.1953 26.0957C98.5299 26.2507 97.8464 26.36 97.1445 26.4238C96.4427 26.4967 95.7318 26.5332 95.0117 26.5332C93.7812 26.5332 92.5827 26.4603 91.416 26.3145C90.2585 26.1686 89.1693 25.9362 88.1484 25.6172C87.1276 25.2891 86.1934 24.8698 85.3457 24.3594C84.498 23.8398 83.7689 23.2155 83.1582 22.4863C82.5475 21.748 82.0736 20.8913 81.7363 19.916C81.3991 18.9408 81.2305 17.8288 81.2305 16.5801ZM119.443 22.5273V19.8477L112.977 9.7168L108.902 6.39453H122.424L120.578 9.01953L124.379 15.8418L127.469 9.14258L125.227 6.39453H136.779L132.09 9.8125L126.375 19.8477V22.5273L130.066 26H115.998L119.443 22.5273ZM140.115 22.541V10.3594L136.041 6.39453H145.939L152.789 16.9492L158.955 6.39453H169.469L165.203 9.73047V22.5273L169.182 26H154.443L158.271 22.5273V15.459L152.393 26H150.41L143.834 15.5684V22.541L147.949 26H136.547L140.115 22.541Z" fill="white"/>
</g>
<g filter="url(#filter8_d_2_20)">
<path d="M100.997 46.7676V38.6289L98.2725 36.3965C98.835 36.3906 99.4326 36.3848 100.065 36.3789C100.698 36.373 101.334 36.3701 101.973 36.3701C102.617 36.3643 103.25 36.3584 103.871 36.3525C104.492 36.3467 105.069 36.3438 105.603 36.3438C106.136 36.3379 106.61 36.335 107.026 36.335C107.442 36.335 107.771 36.335 108.011 36.335C108.603 36.335 109.2 36.3555 109.804 36.3965C110.407 36.4316 110.987 36.502 111.544 36.6074C112.101 36.7129 112.622 36.8594 113.108 37.0469C113.595 37.2285 114.017 37.4688 114.374 37.7676C114.731 38.0664 115.013 38.4268 115.218 38.8486C115.429 39.2705 115.534 39.7686 115.534 40.3428C115.534 40.9639 115.443 41.5059 115.262 41.9688C115.086 42.4258 114.828 42.8184 114.488 43.1465C114.148 43.4688 113.735 43.7324 113.249 43.9375C112.769 44.1426 112.221 44.3037 111.605 44.4209C110.99 44.5381 110.316 44.6201 109.584 44.667C108.857 44.708 108.081 44.7285 107.255 44.7285C107.032 44.7285 106.78 44.7256 106.499 44.7197C106.218 44.7139 105.928 44.7051 105.629 44.6934V46.7676L109.241 49H98.2637L100.997 46.7676ZM106.736 42.7686C107.463 42.7686 108.069 42.7363 108.556 42.6719C109.042 42.6016 109.432 42.4785 109.725 42.3027C110.018 42.127 110.226 41.8867 110.349 41.582C110.472 41.2773 110.533 40.8877 110.533 40.4131C110.533 39.9385 110.451 39.5576 110.287 39.2705C110.123 38.9834 109.886 38.7637 109.575 38.6113C109.265 38.4531 108.884 38.3506 108.433 38.3037C107.987 38.2568 107.48 38.2334 106.912 38.2334H105.629V42.7686H106.736ZM119.155 46.7676V38.6289L116.431 36.3965C116.981 36.3906 117.553 36.3848 118.145 36.3789C118.736 36.373 119.325 36.3701 119.911 36.3701C120.497 36.3643 121.068 36.3584 121.625 36.3525C122.182 36.3467 122.703 36.3438 123.189 36.3438C123.682 36.3379 124.127 36.335 124.525 36.335C124.924 36.335 125.255 36.335 125.519 36.335C126.075 36.335 126.658 36.3467 127.268 36.3701C127.877 36.3936 128.475 36.4463 129.061 36.5283C129.652 36.6045 130.212 36.7217 130.739 36.8799C131.272 37.0322 131.738 37.2402 132.137 37.5039C132.541 37.7617 132.86 38.084 133.095 38.4707C133.335 38.8516 133.455 39.3115 133.455 39.8506C133.455 40.2607 133.382 40.6299 133.235 40.958C133.089 41.2861 132.878 41.5791 132.603 41.8369C132.333 42.0947 132.005 42.3203 131.618 42.5137C131.231 42.707 130.801 42.874 130.326 43.0146C130.695 43.0674 131.041 43.1934 131.363 43.3926C131.691 43.5859 131.976 43.832 132.216 44.1309C132.456 44.4297 132.644 44.7754 132.778 45.168C132.919 45.5605 132.989 45.9824 132.989 46.4336V46.9434L135.459 49H126.811L128.146 47.1279V46.0469C128.146 45.7422 128.103 45.4639 128.015 45.2119C127.927 44.9541 127.807 44.7344 127.654 44.5527C127.502 44.3652 127.323 44.2217 127.118 44.1221C126.919 44.0166 126.708 43.9639 126.485 43.9639H123.787V46.7676L125.378 49H116.422L119.155 46.7676ZM125.07 42.2412C125.686 42.2412 126.222 42.2148 126.679 42.1621C127.136 42.1094 127.514 42.0098 127.812 41.8633C128.117 41.7168 128.343 41.5146 128.489 41.2568C128.636 40.999 128.709 40.668 128.709 40.2637C128.709 39.9531 128.656 39.6865 128.551 39.4639C128.445 39.2412 128.302 39.0566 128.12 38.9102C127.938 38.7578 127.725 38.6377 127.479 38.5498C127.238 38.4561 126.983 38.3887 126.714 38.3477C126.444 38.3008 126.169 38.2715 125.888 38.2598C125.606 38.2422 125.334 38.2334 125.07 38.2334H123.787V42.2412H125.07ZM136.162 42.6982C136.162 41.8896 136.279 41.1631 136.514 40.5186C136.754 39.874 137.076 39.3057 137.48 38.8135C137.885 38.3213 138.359 37.9023 138.904 37.5566C139.449 37.2051 140.026 36.9209 140.636 36.7041C141.251 36.4814 141.884 36.3203 142.534 36.2207C143.185 36.1152 143.82 36.0625 144.441 36.0625C145.121 36.0625 145.798 36.1152 146.472 36.2207C147.151 36.3203 147.796 36.4814 148.405 36.7041C149.021 36.9209 149.592 37.2051 150.119 37.5566C150.646 37.9023 151.104 38.3213 151.49 38.8135C151.883 39.3057 152.188 39.874 152.404 40.5186C152.627 41.1631 152.738 41.8896 152.738 42.6982C152.738 43.4951 152.624 44.2129 152.396 44.8516C152.167 45.4902 151.854 46.0557 151.455 46.5479C151.057 47.04 150.588 47.4619 150.049 47.8135C149.516 48.165 148.941 48.4551 148.326 48.6836C147.717 48.9121 147.078 49.0791 146.41 49.1846C145.748 49.29 145.092 49.3428 144.441 49.3428C143.791 49.3428 143.135 49.293 142.473 49.1934C141.811 49.0938 141.172 48.9355 140.557 48.7188C139.947 48.502 139.373 48.2207 138.834 47.875C138.301 47.5293 137.835 47.1104 137.437 46.6182C137.044 46.126 136.733 45.5576 136.505 44.9131C136.276 44.2627 136.162 43.5244 136.162 42.6982ZM141.33 42.6982C141.33 43.3896 141.406 44.0312 141.559 44.623C141.711 45.209 141.925 45.7188 142.2 46.1523C142.476 46.5859 142.804 46.9258 143.185 47.1719C143.565 47.418 143.984 47.541 144.441 47.541C144.898 47.541 145.317 47.415 145.698 47.1631C146.079 46.9111 146.407 46.5684 146.683 46.1348C146.964 45.7012 147.181 45.1914 147.333 44.6055C147.491 44.0137 147.57 43.3779 147.57 42.6982C147.57 42.0127 147.497 41.3711 147.351 40.7734C147.204 40.1699 146.993 39.6484 146.718 39.209C146.448 38.7637 146.12 38.415 145.733 38.1631C145.347 37.9053 144.916 37.7764 144.441 37.7764C143.984 37.7764 143.565 37.9053 143.185 38.1631C142.804 38.415 142.476 38.7637 142.2 39.209C141.925 39.6484 141.711 40.1699 141.559 40.7734C141.406 41.3711 141.33 42.0127 141.33 42.6982Z" fill="white"/>
</g>
<defs>
<filter id="filter0_d_2_20" x="13.2" y="6" width="19.6" height="48.8" filterUnits="userSpaceOnUse" color-interpolation-filters="sRGB">
<feFlood flood-opacity="0" result="BackgroundImageFix"/>
<feColorMatrix in="SourceAlpha" type="matrix" values="0 0 0 0 0 0 0 0 0 0 0 0 0 0 0 0 0 0 127 0" result="hardAlpha"/>
<feOffset dy="2"/>
<feGaussianBlur stdDeviation="0.9"/>
<feComposite in2="hardAlpha" operator="out"/>
<feColorMatrix type="matrix" values="0 0 0 0 0 0 0 0 0 1 0 0 0 0 1 0 0 0 0.25 0"/>
<feBlend mode="normal" in2="BackgroundImageFix" result="effect1_dropShadow_2_20"/>
<feBlend mode="normal" in="SourceGraphic" in2="effect1_dropShadow_2_20" result="shape"/>
</filter>
<filter id="filter1_d_2_20" x="42.2" y="6" width="19.6" height="48.8" filterUnits="userSpaceOnUse" color-interpolation-filters="sRGB">
<feFlood flood-opacity="0" result="BackgroundImageFix"/>
<feColorMatrix in="SourceAlpha" type="matrix" values="0 0 0 0 0 0 0 0 0 0 0 0 0 0 0 0 0 0 127 0" result="hardAlpha"/>
<feOffset dy="2"/>
<feGaussianBlur stdDeviation="0.9"/>
<feComposite in2="hardAlpha" operator="out"/>
<feColorMatrix type="matrix" values="0 0 0 0 0 0 0 0 0 1 0 0 0 0 1 0 0 0 0.25 0"/>
<feBlend mode="normal" in2="BackgroundImageFix" result="effect1_dropShadow_2_20"/>
<feBlend mode="normal" in="SourceGraphic" in2="effect1_dropShadow_2_20" result="shape"/>
</filter>
<filter id="filter2_d_2_20" x="54.2" y="13" width="16.6" height="34.8" filterUnits="userSpaceOnUse" color-interpolation-filters="sRGB">
<feFlood flood-opacity="0" result="BackgroundImageFix"/>
<feColorMatrix in="SourceAlpha" type="matrix" values="0 0 0 0 0 0 0 0 0 0 0 0 0 0 0 0 0 0 127 0" result="hardAlpha"/>
<feOffset dy="2"/>
<feGaussianBlur stdDeviation="0.9"/>
<feComposite in2="hardAlpha" operator="out"/>
<feColorMatrix type="matrix" values="0 0 0 0 0 0 0 0 0 1 0 0 0 0 1 0 0 0 0.25 0"/>
<feBlend mode="normal" in2="BackgroundImageFix" result="effect1_dropShadow_2_20"/>
<feBlend mode="normal" in="SourceGraphic" in2="effect1_dropShadow_2_20" result="shape"/>
</filter>
<filter id="filter3_d_2_20" x="4.2" y="13" width="17.6" height="34.8" filterUnits="userSpaceOnUse" color-interpolation-filters="sRGB">
<feFlood flood-opacity="0" result="BackgroundImageFix"/>
<feColorMatrix in="SourceAlpha" type="matrix" values="0 0 0 0 0 0 0 0 0 0 0 0 0 0 0 0 0 0 127 0" result="hardAlpha"/>
<feOffset dy="2"/>
<feGaussianBlur stdDeviation="0.9"/>
<feComposite in2="hardAlpha" operator="out"/>
<feColorMatrix type="matrix" values="0 0 0 0 0 0 0 0 0 1 0 0 0 0 1 0 0 0 0.25 0"/>
<feBlend mode="normal" in2="BackgroundImageFix" result="effect1_dropShadow_2_20"/>
<feBlend mode="normal" in="SourceGraphic" in2="effect1_dropShadow_2_20" result="shape"/>
</filter>
<filter id="filter4_d_2_20" x="25.2" y="26" width="25.6" height="8.8" filterUnits="userSpaceOnUse" color-interpolation-filters="sRGB">
<feFlood flood-opacity="0" result="BackgroundImageFix"/>
<feColorMatrix in="SourceAlpha" type="matrix" values="0 0 0 0 0 0 0 0 0 0 0 0 0 0 0 0 0 0 127 0" result="hardAlpha"/>
<feOffset dy="2"/>
<feGaussianBlur stdDeviation="0.9"/>
<feComposite in2="hardAlpha" operator="out"/>
<feColorMatrix type="matrix" values="0 0 0 0 0 0 0 0 0 1 0 0 0 0 1 0 0 0 0.25 0"/>
<feBlend mode="normal" in2="BackgroundImageFix" result="effect1_dropShadow_2_20"/>
<feBlend mode="normal" in="SourceGraphic" in2="effect1_dropShadow_2_20" result="shape"/>
</filter>
<filter id="filter5_d_2_20" x="63.2" y="26" width="12.6" height="8.8" filterUnits="userSpaceOnUse" color-interpolation-filters="sRGB">
<feFlood flood-opacity="0" result="BackgroundImageFix"/>
<feColorMatrix in="SourceAlpha" type="matrix" values="0 0 0 0 0 0 0 0 0 0 0 0 0 0 0 0 0 0 127 0" result="hardAlpha"/>
<feOffset dy="2"/>
<feGaussianBlur stdDeviation="0.9"/>
<feComposite in2="hardAlpha" operator="out"/>
<feColorMatrix type="matrix" values="0 0 0 0 0 0 0 0 0 1 0 0 0 0 1 0 0 0 0.25 0"/>
<feBlend mode="normal" in2="BackgroundImageFix" result="effect1_dropShadow_2_20"/>
<feBlend mode="normal" in="SourceGraphic" in2="effect1_dropShadow_2_20" result="shape"/>
</filter>
<filter id="filter6_d_2_20" x="0.2" y="26" width="12.6" height="8.8" filterUnits="userSpaceOnUse" color-interpolation-filters="sRGB">
<feFlood flood-opacity="0" result="BackgroundImageFix"/>
<feColorMatrix in="SourceAlpha" type="matrix" values="0 0 0 0 0 0 0 0 0 0 0 0 0 0 0 0 0 0 127 0" result="hardAlpha"/>
<feOffset dy="2"/>
<feGaussianBlur stdDeviation="0.9"/>
<feComposite in2="hardAlpha" operator="out"/>
<feColorMatrix type="matrix" values="0 0 0 0 0 0 0 0 0 1 0 0 0 0 1 0 0 0 0.25 0"/>
<feBlend mode="normal" in2="BackgroundImageFix" result="effect1_dropShadow_2_20"/>
<feBlend mode="normal" in="SourceGraphic" in2="effect1_dropShadow_2_20" result="shape"/>
</filter>
<filter id="filter7_d_2_20" x="79.8305" y="5.475" width="91.0383" height="23.4582" filterUnits="userSpaceOnUse" color-interpolation-filters="sRGB">
<feFlood flood-opacity="0" result="BackgroundImageFix"/>
<feColorMatrix in="SourceAlpha" type="matrix" values="0 0 0 0 0 0 0 0 0 0 0 0 0 0 0 0 0 0 127 0" result="hardAlpha"/>
<feOffset dy="1"/>
<feGaussianBlur stdDeviation="0.7"/>
<feComposite in2="hardAlpha" operator="out"/>
<feColorMatrix type="matrix" values="0 0 0 0 0 0 0 0 0 1 0 0 0 0 1 0 0 0 0.84 0"/>
<feBlend mode="normal" in2="BackgroundImageFix" result="effect1_dropShadow_2_20"/>
<feBlend mode="normal" in="SourceGraphic" in2="effect1_dropShadow_2_20" result="shape"/>
</filter>
<filter id="filter8_d_2_20" x="96.8637" y="35.6625" width="57.2746" height="16.0803" filterUnits="userSpaceOnUse" color-interpolation-filters="sRGB">
<feFlood flood-opacity="0" result="BackgroundImageFix"/>
<feColorMatrix in="SourceAlpha" type="matrix" values="0 0 0 0 0 0 0 0 0 0 0 0 0 0 0 0 0 0 127 0" result="hardAlpha"/>
<feOffset dy="1"/>
<feGaussianBlur stdDeviation="0.7"/>
<feComposite in2="hardAlpha" operator="out"/>
<feColorMatrix type="matrix" values="0 0 0 0 0 0 0 0 0 1 0 0 0 0 1 0 0 0 0.84 0"/>
<feBlend mode="normal" in2="BackgroundImageFix" result="effect1_dropShadow_2_20"/>
<feBlend mode="normal" in="SourceGraphic" in2="effect1_dropShadow_2_20" result="shape"/>
</filter>
</defs>
</svg>
